<?xml version="1.0" encoding="UTF-8" standalone="no"?>
<svg
   version="1.1"
   id="Contours"
   x="0px"
   y="0px"
   width="1628"
   height="1036"
   viewBox="0 5e-06 1628 636.23342"
   enable-background="new 0 0 2048.000244 2048.000244"
   xml:space="preserve"
   stroke="#000000"
   fill="none"
   stroke-linecap="round"
   stroke-linejoin="round"
   sodipodi:docname="logo.svg"
   inkscape:version="1.2.2 (b0a8486541, 2022-12-01)"
   xmlns:inkscape="http://www.inkscape.org/namespaces/inkscape"
   xmlns:sodipodi="http://sodipodi.sourceforge.net/DTD/sodipodi-0.dtd"
   xmlns="http://www.w3.org/2000/svg"
   xmlns:svg="http://www.w3.org/2000/svg"><defs
     id="defs45" /><sodipodi:namedview
     id="namedview43"
     pagecolor="#ffffff"
     bordercolor="#000000"
     borderopacity="0.25"
     inkscape:showpageshadow="2"
     inkscape:pageopacity="0.0"
     inkscape:pagecheckerboard="0"
     inkscape:deskcolor="#d1d1d1"
     showgrid="false"
     inkscape:zoom="0.27966622"
     inkscape:cx="1083.4344"
     inkscape:cy="355.78126"
     inkscape:window-width="1920"
     inkscape:window-height="999"
     inkscape:window-x="0"
     inkscape:window-y="0"
     inkscape:window-maximized="1"
     inkscape:current-layer="Contours" /><g
     id="g902"
     transform="translate(0,-134)"><path
       class="selected"
       fill="#000000"
       opacity="1"
       stroke="none"
       d="m -153.07442,860.99149 2048.00022,0.15326"
       id="path2" /><path
       class="selected"
       fill="#000000"
       opacity="1"
       stroke="none"
       d="m 374.12269,499.59574 c -42.09291,-17.85179 -84.54602,-35.81671 -129.37636,-44.80223 -44.83035,-8.98552 -92.77999,-8.45835 -134.67448,9.85426 -6.97839,3.05034 -14.009654,6.63947 -21.621114,6.90073 -7.611465,0.26126 -16.05559,-4.03459 -17.575169,-11.49739 -1.819224,-8.93439 6.486546,-16.39961 13.886609,-21.72615 54.637164,-39.32759 111.980724,-79.80193 178.489384,-90.21713 7.01585,-1.09867 15.82219,-1.01938 19.23937,5.20575 2.96534,5.402 -0.44139,12.48081 -5.6202,15.82069 -5.17882,3.33987 -11.5709,3.99366 -17.66396,4.91538 -44.43815,6.72234 -83.6893,31.68118 -121.44786,56.05802 77.90844,-17.36922 157.90755,11.53566 232.22239,40.66846 8.34623,3.27188 16.95271,6.72321 23.23755,13.11582 6.28485,6.3926 9.63008,16.58739 5.49263,24.54014 -26.99653,51.89105 -30.64075,113.73622 -18.94903,171.04937 11.69172,57.31315 37.76884,110.73375 67.74003,160.96543 6.0861,10.20029 12.50451,20.48891 21.62711,28.09581 7.794,6.49905 17.64888,11.17346 22.61814,20.02166 4.96927,8.84819 0.0961,23.6377 -9.9941,22.55525 -3.41828,-0.3667 -6.37229,-2.47261 -9.0741,-4.59847 -34.73112,-27.3275 -55.52271,-68.21624 -75.24583,-107.76421 -9.89006,-19.83114 -19.79892,-39.70509 -27.60314,-60.44591 -28.70542,-76.28869 -27.13721,-163.50782 4.29213,-238.71528 z"
       id="path4" /><path
       class="selected"
       fill="#000000"
       opacity="1"
       stroke="none"
       d="m 1048.8052,609.0496 c 5.1295,112.39338 4.5857,225.04548 -1.6286,337.38409 -0.3815,6.89628 -1.6206,15.09778 -7.8764,18.02521 -4.6661,2.18355 -10.9141,-0.1965 -12.9448,-4.93111 -1.6834,-3.92469 -6.6042,-5.44376 -10.8559,-5.04325 -4.2515,0.40052 -8.2456,2.20672 -12.4511,2.94878 -14.6174,2.57925 -28.86668,-8.54 -34.91129,-22.09655 -6.04461,-13.55656 -5.81719,-28.96282 -5.48197,-43.80213 0.22414,-9.92243 0.44829,-19.84485 0.67243,-29.76728 0.17026,-7.53725 0.35847,-15.18938 2.59042,-22.3906 3.79052,-12.22988 13.69793,-22.39377 25.82701,-26.49556 12.1291,-4.10179 26.1718,-2.03737 36.6071,5.3816 -1.2354,-78.99477 -2.4708,-157.98955 -3.7063,-236.98432 -0.1109,-7.09167 0.2889,-15.29345 5.9448,-19.57315 6.0085,-4.54662 16.2146,-0.82759 17.8894,6.51882 0.7094,3.1116 0.085,6.40647 0.7622,9.52532 0.6768,3.11885 3.5932,6.25051 6.6412,5.30433 23.0268,-7.14828 50.3435,3.87903 61.9545,25.01002 8.273,15.05608 8.7224,33.02162 8.9732,50.19907 0.3021,20.6935 0.6043,41.38701 0.9064,62.08052 0.071,4.82785 0.1029,9.84492 -1.9259,14.22639 -2.0287,4.38147 -6.7651,7.91151 -11.4898,6.91657 -6.4422,-1.35661 -8.6253,-9.31494 -9.3836,-15.85457 -2.4121,-20.80247 -3.135,-41.80057 -2.1591,-62.71966 0.6062,-12.99378 1.7406,-26.67034 -3.9033,-38.39007 -8.5028,-17.65628 -33.067,-25.25 -50.0506,-15.47247 m -52.8164,323.3298 c 2.1901,1.22515 4.8383,1.38081 7.323,1.02853 9.1073,-1.29126 16.2918,-8.93635 19.6909,-17.4837 3.3992,-8.54734 3.7005,-17.96317 3.9582,-27.15799 0.4483,-15.99188 0.8965,-31.98375 1.3448,-47.97563 0.039,-1.39723 -1.7387,-2.17486 -3.1099,-1.90379 -1.3713,0.27108 -2.5474,1.1603 -3.8983,1.51952 -4.3518,1.15727 -7.9796,-3.26173 -12.0989,-5.08093 -6.6121,-2.92013 -14.6083,1.51488 -18.1466,7.81789 -3.5383,6.303 -3.7687,13.86606 -3.9119,21.09288 -0.2093,10.56104 -0.4186,21.12209 -0.6278,31.68314 -0.2092,10.55575 -0.2984,21.6415 4.6625,30.96118 1.1608,2.18066 2.6581,4.29283 4.814,5.4989 z"
       id="path6" /><path
       class="selected"
       fill="#000000"
       opacity="1"
       stroke="none"
       d="m 257.34037,244.29426 c -5.04461,2.4426 -11.36903,-0.92461 -14.0781,-5.83127 -2.70908,-4.90666 -2.72682,-10.80426 -2.54369,-16.40613 2.20199,-67.35666 23.32974,-132.47657 44.26333,-196.535558 4.75911,-14.56338 9.53926,-29.1793402 16.22858,-42.96318 6.44308,-13.27645 14.63432,-25.70323 24.29557,-36.85838 4.59904,-5.31017 11.19784,-10.79795 17.8638,-8.58117 4.68329,1.55745 7.45619,6.62502 7.89454,11.54099 0.43835,4.91596 -0.97757,9.7825 -2.23666,14.55467 -8.87707,33.6455198 -10.53116,68.72122 -11.80557,103.494768 -3.63314,99.13365 -3.6567,202.62081 39.9007,291.74676 2.49295,5.101 5.17909,10.35365 5.33043,16.02922 0.15134,5.67557 -3.11111,11.90318 -8.66691,13.0728 -8.22577,1.73171 -14.11341,-7.55412 -17.33438,-15.31861 -10.26304,-24.74011 -20.55207,-49.55479 -27.7426,-75.35595 C 314.57131,246.15262 312.7427,192.89023 312.20593,140.22913 311.73598,94.12277 312.19503,47.890392 317.72057,2.1139118 305.21664,42.550342 292.71271,82.98677 280.20878,123.42319 c -3.25383,10.52252 -6.51723,21.08512 -8.30576,31.95305 -1.52965,9.29487 -1.96642,18.72889 -2.60758,28.12695 -1.07167,15.70864 -2.72125,31.37784 -4.94428,46.96526 -0.76134,5.33842 -2.15738,11.47579 -7.01079,13.82581 z"
       id="path8" /><path
       class="selected"
       fill="#000000"
       opacity="1"
       stroke="none"
       d="m 502.074,446.43755 c -7.24428,1.45611 -14.7917,-2.07314 -19.91409,-7.39864 -5.1224,-5.3255 -8.23251,-12.23323 -10.98653,-19.09 -25.3538,-63.12432 -28.34048,-132.65844 -31.00688,-200.63186 -1.61759,-41.23653 -3.20455,-82.908 4.62133,-123.42743 -25.08605,45.67151 -45.83962,93.72145 -61.89149,143.29497 -2.81203,8.68449 -9.1607,19.52583 -17.8714,16.79608 -8.53463,-2.67456 -7.84331,-14.9102 -5.20135,-23.45499 18.91718,-61.18306 46.9532,-119.26145 79.39756,-174.475488 5.44506,-9.26645 11.92698,-19.18921 22.23534,-22.23117 10.30835,-3.04196 23.87054,6.33712 20.23098,16.44995 -25.27903,70.240048 -20.12169,147.277558 -14.6365,221.726248 1.81238,24.59871 3.63304,49.2618 8.24966,73.49129 4.04728,21.24141 10.21754,42.01153 16.37735,62.73917 1.75967,5.92124 5.57918,13.21992 11.66372,12.15412 49.44754,-8.66154 102.58576,7.16595 139.23522,41.47191 6.57811,6.15749 12.7201,16.9085 6.30051,23.23109 -3.39215,3.3409 -9.00072,3.38733 -13.37067,1.49739 -4.36995,-1.88994 -7.83913,-5.33361 -11.36856,-8.52915 -32.452,-29.38193 -79.14556,-42.24019 -122.0642,-33.61349 z"
       id="path10" /><path
       class="selected"
       fill="#000000"
       opacity="1"
       stroke="none"
       d="m 1221.0967,740.44008 c -11.4103,4.21709 -25.0727,1.55023 -34.0595,-6.64825 -13.8133,-12.60169 -14.6293,-33.6973 -14.4569,-52.39438 0.088,-9.48516 0.1749,-18.97032 0.2624,-28.45548 0.1168,-12.66998 0.3744,-25.91476 6.3812,-37.07094 10.6484,-19.77696 39.9975,-26.26752 57.9925,-12.82506 1.5441,-52.65092 0.9613,-105.36418 -1.7468,-157.96808 -0.4191,-8.14052 0.7888,-18.72187 8.6966,-20.6996 5.0907,-1.2732 10.3852,2.33265 12.8083,6.98726 2.4231,4.65462 2.6556,10.09982 2.8375,15.34422 1.2116,34.92449 2.4233,69.85396 2.7027,104.79834 0.488,61.0223 -1.8693,122.06726 -7.0617,182.87021 -0.3837,4.4942 -0.9439,9.35872 -4.0569,12.62283 -5.0356,5.28004 -15.6551,2.23003 -17.1214,-4.91743 -1.0221,-4.98244 -8.4072,-3.40688 -13.178,-1.64365 m -14.9695,-23.37229 c 4.1256,2.29305 9.3975,1.33508 13.5152,-0.97203 6.3806,-3.57502 10.7809,-10.01291 13.2537,-16.89613 2.4728,-6.88321 3.2101,-14.25387 3.7484,-21.54795 1.2221,-16.56149 1.5173,-33.19134 0.8838,-49.78578 -0.08,-2.09781 -1.5537,-5.02729 -3.3509,-3.94232 -4.0094,2.42046 -9.6608,1.65338 -12.8799,-1.74824 -4.1276,-4.36154 -11.7457,-3.33291 -16.307,0.57274 -7.5191,6.43822 -8.3263,17.57833 -8.5723,27.47414 -0.2571,10.34541 -0.5142,20.69082 -0.7713,31.03623 -0.2678,10.77659 -0.309,22.36084 5.7961,31.24532 1.2458,1.81295 2.7615,3.49535 4.6842,4.56402 z"
       id="path12" /><path
       class="selected"
       fill="#000000"
       opacity="1"
       stroke="none"
       d="m 1627.5549,714.56534 c 0.3759,6.086 0.6895,12.49949 -2.0338,17.95514 -2.7233,5.45565 -9.6265,9.32958 -15.0733,6.58847 -5.6771,-2.85706 -6.4924,-10.48013 -6.5936,-16.83486 -0.6534,-41.01806 -2.6689,-82.0144 -6.042,-122.89874 -0.101,-1.2247 -0.2431,-2.54511 -1.0684,-3.45556 -1.5815,-1.74459 -4.4316,-0.91665 -6.5845,0.0371 -8.4149,3.72794 -16.8297,7.45588 -25.2445,11.18381 -2.5257,1.11892 -5.4629,2.84509 -5.4104,5.60701 0.6722,35.3896 1.3444,70.77921 2.0166,106.16881 0.1284,6.76191 -0.6698,15.06912 -6.8588,17.7961 -5.2205,2.30026 -11.5245,-1.25576 -14.2566,-6.26384 -2.7321,-5.00808 -2.8207,-10.98326 -2.8432,-16.68807 -0.1374,-34.8258 -0.2748,-69.65159 -0.4121,-104.47739 -0.013,-3.24001 -0.1149,-6.74903 -2.1245,-9.29052 -2.4569,-3.1071 -6.8603,-3.69346 -10.8059,-4.04394 -5.4875,-0.48747 -11.1561,-0.95581 -16.3879,0.77027 -5.2319,1.72608 -9.9541,6.24826 -10.121,11.75493 -1.1057,36.47713 -2.2113,72.95425 -3.317,109.43138 -0.1586,5.23364 -0.3805,10.7037 -2.9601,15.26018 -2.5797,4.55648 -8.324,7.78269 -13.1489,5.7488 -5.9553,-2.51039 -6.7182,-10.49778 -6.5563,-16.95852 1.2097,-48.28897 2.4194,-96.57794 3.6292,-144.86691 0.1384,-5.52647 0.6012,-11.7626 4.8368,-15.31518 6.1532,-5.16099 17.4346,1.50594 15.8813,9.38537 -0.5336,2.7071 2.1837,5.14442 4.9206,5.49402 2.737,0.34959 5.4264,-0.71585 8.0629,-1.5296 13.2639,-4.09393 28.3512,-1.77787 39.7764,6.10609 7.9169,5.46307 18.7482,1.75686 27.2324,-2.77527 8.4843,-4.53212 17.8574,-9.95247 27.1144,-7.33892 13.4699,3.80299 16.8101,21.03841 17.6731,35.00825 2.233,36.14719 4.466,72.29438 6.6991,108.44157 z"
       id="path14" /><path
       class="selected"
       fill="#000000"
       opacity="1"
       stroke="none"
       d="m 939.05522,620.93619 c 11.19246,-15.15763 23.38925,-29.57354 36.48388,-43.12181 5.64995,-5.84569 14.5981,-11.84947 21.0805,-6.94312 3.7243,2.81875 4.5214,8.30892 3.13077,12.76779 -1.39057,4.45886 -4.51417,8.13367 -7.56127,11.67354 -11.88969,13.81275 -23.77939,27.62551 -35.66909,41.43826 -5.80134,6.73966 -0.96421,17.01082 3.96077,24.41509 7.93535,11.9301 15.8707,23.8602 23.80602,35.7903 5.1071,7.67808 9.6906,19.29404 2.3292,24.84788 -7.40229,5.58467 -17.42369,-2.18988 -22.90039,-9.6724 -8.54914,-11.68024 -15.89952,-24.23739 -21.89835,-37.41046 -1.17632,-2.58311 -5.09724,-0.47358 -6.67948,1.88283 -9.13549,13.60533 -12.69099,31.52626 -25.82784,41.32348 -13.22987,9.86661 -32.96241,7.64311 -46.04491,-2.4181 -13.0825,-10.06121 -20.16045,-26.37275 -22.53446,-42.70504 -2.37401,-16.3323 -0.5697,-32.94629 1.09431,-49.36612 1.05621,-10.42238 2.08573,-20.98826 5.74349,-30.80469 3.65776,-9.81643 10.32478,-18.96911 19.86879,-23.28806 14.82058,-6.70675 32.81519,-0.0438 44.57219,11.19911 11.75699,11.24291 18.91955,26.29922 27.04587,40.39152 m -17.0055,20.42919 c -5.85012,-12.61496 -12.80953,-24.71525 -20.77161,-36.11552 -3.00662,-4.30493 -6.26536,-8.61307 -10.72772,-11.38064 -4.46236,-2.76757 -10.41952,-3.70678 -14.94913,-1.0507 -5.53923,3.24809 -7.15099,10.39134 -8.05931,16.74807 -2.2655,15.85473 -3.45901,31.86254 -3.56969,47.87793 -0.0612,8.85014 0.25685,17.94246 3.67515,26.10604 3.41829,8.16358 10.57584,15.30093 19.36964,16.29988 2.22398,0.25265 4.54819,0.0962 6.57304,-0.85773 3.43479,-1.61812 5.44176,-5.18412 7.22864,-8.53421 6.88983,-12.91722 13.77966,-25.83444 20.66949,-38.75165 0.98422,-1.84525 1.99557,-3.80095 1.92588,-5.89111 -0.0521,-1.5618 -0.70696,-3.03271 -1.36438,-4.45036 z"
       id="path16" /><path
       class="selected"
       fill="#000000"
       opacity="1"
       stroke="none"
       d="m 216.95145,299.68254 c -4.88763,-6.60758 -11.71102,-11.50342 -18.65238,-15.90416 -35.67166,-22.6154 -77.76998,-34.96717 -120.005801,-35.21004 -18.140392,-0.10432 -36.270295,1.96965 -54.394271,1.19107 C 14.872347,249.37163 3.6739344,246.32635 2.2224184,237.40873 0.79831741,228.65953 10.051582,222.24671 18.115098,218.56484 73.17662,193.42329 135.18549,183.7095 195.29761,190.80891 c 6.81805,0.80523 15.05118,3.06169 16.62282,9.74482 1.26502,5.3793 -3.02412,10.79487 -8.16799,12.81422 -5.14386,2.01936 -10.87966,1.52793 -16.39084,1.12294 -40.31071,-2.96222 -81.08109,0.41774 -120.353696,9.9776 57.699416,-1.18726 116.860846,15.25879 161.258926,52.12941 6.15956,5.11525 12.37841,11.25718 13.48625,19.18679 1.10785,7.9296 -5.9529,17.09974 -13.66875,14.96162 -5.15181,-1.42761 -7.95371,-6.76586 -11.13288,-11.06377 z"
       id="path18" /><path
       class="selected"
       fill="#000000"
       opacity="1"
       stroke="none"
       d="m 736.20811,398.39638 c -0.0907,-5.33288 4.42375,-9.86114 9.47882,-11.56237 5.05506,-1.70124 10.55119,-1.20732 15.86007,-0.69383 16.84245,1.62902 34.69108,3.64393 48.02699,14.05907 14.60269,11.40447 20.68635,30.51733 23.92367,48.76069 3.80817,21.46025 4.69884,44.02334 -2.38933,64.63407 -7.08816,20.61074 -23.28486,38.97946 -44.43191,44.25643 -3.61338,0.90167 -7.43159,1.46511 -10.53603,3.52228 -3.10444,2.05717 -5.23574,6.23081 -3.58272,9.56803 11.67627,23.57276 18.07298,49.3443 24.38533,74.8818 6.5799,26.61987 13.15979,53.23973 19.73968,79.8596 1.43626,5.8106 2.54949,12.85531 -1.76326,17.00575 -4.18922,4.03157 -11.52642,2.65995 -15.71352,-1.37383 -4.1871,-4.03377 -5.99656,-9.8777 -7.56289,-15.47678 -14.34861,-51.29152 -21.70839,-105.02586 -44.45878,-153.18312 -2.42683,-5.13704 -5.09356,-10.58524 -4.3606,-16.21919 1.03892,-7.98574 8.62564,-13.57169 16.27189,-16.0988 7.64625,-2.52712 15.89536,-2.99462 23.39014,-5.94075 15.08595,-5.93017 24.89495,-21.30687 28.15097,-37.18614 3.25602,-15.87926 0.94245,-32.33865 -2.0675,-48.2664 -1.78798,-9.46144 -4.061,-19.3645 -10.55779,-26.47137 -8.82887,-9.65795 -23.1905,-11.73703 -36.27372,-11.50454 -5.31104,0.0944 -10.76384,0.45049 -15.80232,-1.23167 -5.03848,-1.68216 -9.63685,-6.02782 -9.72719,-11.33893 z"
       id="path20" /><path
       class="selected"
       fill="#000000"
       opacity="1"
       stroke="none"
       d="m 1360.9527,719.33584 c 1.2328,5.56323 -2.9191,11.18633 -8.0899,13.5806 -5.1707,2.39427 -11.0948,2.33646 -16.7921,2.23336 -6.048,-0.10944 -12.0961,-0.21888 -18.1442,-0.32833 -7.3525,-0.13304 -16.4337,-1.43915 -18.8729,-8.37654 -1.6363,-4.65414 0.8984,-10.01051 4.89,-12.90984 3.9915,-2.89933 9.097,-3.7837 14.0254,-4.00831 -15.002,-21.83121 -18.7792,-50.96437 -9.8406,-75.89954 3.5227,-9.82709 9.0532,-19.16664 17.1965,-25.69867 5.804,-4.65558 12.7432,-7.73779 19.8911,-9.80387 26.315,-7.60629 56.9045,-0.6417 75.7143,19.27131 18.8098,19.91301 23.6966,52.42137 9.6503,75.93807 -2.0646,3.45654 -4.5689,6.96344 -4.626,10.98922 -0.057,4.02577 3.9169,8.30347 7.6285,6.74317 4.7786,-2.00888 10.8495,-0.23962 13.8006,4.02197 2.9512,4.26159 2.4719,10.56686 -1.0895,14.33342 -3.9405,4.16755 -10.2534,4.76859 -15.9789,5.10847 -6.1359,0.36424 -12.2718,0.72849 -18.4077,1.09273 -5.8561,0.34764 -12.0704,0.61981 -17.2146,-2.20024 -5.1442,-2.82005 -8.3715,-9.96247 -4.9967,-14.76106 8.6396,-12.28477 17.4138,-24.84003 21.7857,-39.20827 4.3718,-14.36823 3.6749,-31.11956 -5.5011,-43.00906 -7.3326,-9.50095 -19.1222,-14.7165 -30.9704,-16.62825 -9.8149,-1.58366 -20.3471,-1.02867 -29.0007,3.86558 -11.2114,6.34078 -17.6342,19.26652 -18.577,32.11216 -0.9429,12.84565 2.9341,25.61328 8.3601,37.29478 1.7973,3.86926 3.8353,7.74713 6.9986,10.60981 6.084,5.50581 16.386,7.62627 18.1612,15.63733 z"
       id="path22" /><path
       class="selected"
       fill="#000000"
       opacity="1"
       stroke="none"
       d="m 840.32113,945.99336 c 0.46081,5.3733 -3.76965,10.25707 -8.74585,12.33602 -4.9762,2.07895 -10.55428,1.98015 -15.94568,1.84822 -6.83992,-0.16737 -13.67984,-0.33474 -20.51976,-0.50212 -5.21519,-0.12761 -11.09163,-0.55464 -14.47081,-4.52901 -3.55476,-4.18086 -2.57999,-10.98202 1.15126,-15.00616 3.73125,-4.02414 9.48258,-5.62307 14.9702,-5.66698 -13.08749,-21.96946 -19.36583,-49.50617 -10.30003,-73.41748 9.32499,-24.59493 34.97171,-41.79751 61.27493,-41.87972 26.30322,-0.0822 51.73033,16.51841 62.96729,40.30069 11.23695,23.78229 8.13369,53.49895 -7.11454,74.93158 5.43501,-0.34285 11.06911,-0.65723 16.15087,1.30047 5.08177,1.9577 9.46012,6.86358 8.9757,12.28781 -0.82376,9.22387 -12.92558,11.84267 -22.18485,11.99884 -6.14996,0.10372 -12.29991,0.20745 -18.44987,0.31117 -5.21319,0.0879 -10.73098,0.0996 -15.21894,-2.55437 -4.48796,-2.65392 -7.21222,-9.00558 -4.20011,-13.26142 8.97816,-12.68536 18.10832,-25.67965 22.44238,-40.60418 4.33406,-14.92454 3.0593,-32.40315 -7.156,-44.11525 -6.79422,-7.78974 -16.77992,-12.21776 -26.91746,-14.23565 -11.92197,-2.37307 -25.12782,-1.44759 -34.98463,5.66634 -9.18924,6.63212 -14.28938,17.92749 -15.22002,29.22178 -0.93064,11.29429 1.91376,22.60931 6.13182,33.12763 2.18482,5.44812 4.85823,10.90396 9.26896,14.77706 6.55934,5.7598 17.34926,8.96738 18.09514,17.66473 z"
       id="path24" /><path
       class="selected"
       fill="#000000"
       opacity="1"
       stroke="none"
       d="m 146.58268,32.401512 c 2.93374,-28.4923802 8.16861,-57.89435 24.69159,-81.29123 5.03092,-7.12388 13.36374,-14.20893 21.53455,-11.15971 9.29187,3.4676 9.7138,16.2039 8.99624,26.09572 -3.26577,45.02005 4.42917,90.79627 22.23517,132.274158 2.20059,5.12614 4.59642,10.38023 4.61864,15.9587 0.0222,5.57847 -3.08771,11.61638 -8.48988,13.0079 -9.1297,2.35169 -15.52839,-8.67757 -18.45867,-17.63833 C 189.29518,71.68333 176.74595,32.899792 177.00663,-7.0431479 168.09476,36.495602 164.93953,81.20906 167.64887,125.56787 c 0.37574,6.15177 0.38384,13.41469 -4.56385,17.08971 -5.39487,4.00718 -13.66579,0.67352 -17.19257,-5.04695 -3.52678,-5.72048 -3.61877,-12.83949 -3.55941,-19.5595 0.2526,-28.59446 1.32076,-57.204428 4.24964,-85.649618 z"
       id="path26" /><path
       class="selected"
       fill="#000000"
       opacity="1"
       stroke="none"
       d="m 1455.4886,885.66612 c -10.284,8.55635 -21.7578,15.68061 -33.9875,21.10335 -5.8997,2.61597 -12.3629,4.87624 -18.6989,3.64944 -6.336,-1.22681 -12.1596,-7.18858 -11.0077,-13.53862 -3.8593,8.29501 -5.0494,18.90892 0.7239,26.00612 5.8585,7.20193 16.3365,8.09044 25.6147,8.41281 15.2021,0.52818 31.6082,0.72037 44.0785,-7.99017 5.3968,-3.76972 10.8028,-9.36388 17.2911,-8.25084 6.4409,1.10492 9.9298,9.02162 8.2636,15.34061 -1.6661,6.319 -6.9795,11.02161 -12.5847,14.38143 -15.0167,9.00134 -33.1933,10.92937 -50.7011,10.99163 -19.2989,0.0686 -41.1008,-3.22215 -52.3317,-18.91669 -8.9362,-12.48788 -8.449,-29.46164 -4.743,-44.3636 6.5406,-26.3002 22.1445,-50.25617 43.5562,-66.87001 9.0931,-7.0556 19.4974,-12.92061 30.8973,-14.50443 11.4,-1.58383 23.913,1.71532 31.4152,10.44366 8.0693,9.38813 8.9749,23.47644 4.7049,35.09616 -4.27,11.61973 -12.9744,21.09149 -22.4908,29.00915 m 0.2628,-46.91926 c -2.951,-5.11585 -10.5665,-4.34933 -16.0477,-2.15025 -23.9933,9.62611 -40.3291,32.99383 -47.8524,57.72717 2.8829,-3.12106 6.4252,-5.63019 10.3259,-7.31434 3.3023,-1.42575 6.8244,-2.25553 10.2568,-3.33088 17.0504,-5.34181 32.0152,-17.07553 41.2702,-32.35942 2.3123,-3.81849 4.2776,-8.70546 2.0472,-12.57228 z"
       id="path28" /><path
       class="selected"
       fill="#000000"
       opacity="1"
       stroke="none"
       d="m 530.03524,624.24495 c 0.61872,-7.0214 2.05088,-14.74014 7.62317,-19.05667 5.5723,-4.31653 16.11869,-1.52837 16.05709,5.51997 -0.97347,111.38864 -1.94694,222.77727 -2.92041,334.16591 -0.0453,5.18256 -0.13425,10.56136 -2.38966,15.22764 -2.25541,4.66628 -7.34367,8.39556 -12.41905,7.34601 -7.90671,-1.63505 -9.58849,-12.03293 -9.51833,-20.10663 0.85269,-98.11644 1.70537,-196.23288 2.55806,-294.34932 0.0833,-9.59051 0.16725,-19.19305 1.00913,-28.74691 z"
       id="path30" /><path
       class="selected"
       fill="#000000"
       opacity="1"
       stroke="none"
       d="m 702.22446,403.7752 c 0.39379,-6.25173 1.81728,-13.78061 7.69521,-15.94607 5.0258,-1.85153 10.73898,1.725 13.16045,6.50237 2.42148,4.77738 2.40161,10.37368 2.3627,15.72955 -0.76541,105.36623 11.67148,210.7767 5.15224,315.94383 -0.48539,7.83025 -1.49566,16.52622 -7.46134,21.62124 -5.96567,5.09502 -18.05994,1.90766 -17.47303,-5.91564 3.8859,-51.79753 4.67973,-103.82686 2.37586,-155.71883 -2.69711,-60.74931 -9.63485,-121.52758 -5.81209,-182.21645 z"
       id="path32" /><path
       class="selected"
       fill="#000000"
       opacity="1"
       stroke="none"
       d="m 771.1117,798.97799 c 0.82843,5.79428 -4.44952,10.96066 -10.11094,12.44668 -5.66142,1.48601 -11.62671,0.3683 -17.45784,-0.13944 -12.18043,-1.06062 -24.59246,0.62948 -36.04584,4.90821 -4.09259,1.5289 -8.25375,3.53678 -10.76992,7.10829 -2.09471,2.97328 -2.80017,6.67866 -3.41227,10.26384 -5.97649,35.00514 -7.95803,70.69075 -5.89383,106.14237 0.30464,5.23211 0.67797,10.61978 -0.98782,15.58898 -1.6658,4.9692 -5.94187,9.46904 -11.17956,9.65469 -5.01091,0.17762 -9.46791,-3.6481 -11.59797,-8.18722 -2.13007,-4.53912 -2.41391,-9.69414 -2.66254,-14.70203 -2.18001,-43.90993 -4.36002,-87.81985 -6.54003,-131.72977 -0.19978,-4.02399 -0.36736,-8.22745 1.30289,-11.89387 2.39065,-5.24779 8.69657,-8.37597 14.3213,-7.10438 5.62472,1.27159 9.97179,6.80812 9.87258,12.57393 22.11809,-14.15589 49.47855,-19.90246 75.42282,-15.84121 6.77527,1.06059 14.76836,4.12218 15.73897,10.91093 z"
       id="path34" /><path
       class="selected"
       fill="#000000"
       opacity="1"
       stroke="none"
       d="m 1122.8652,819.39383 c 2.7672,3.80074 2.8519,8.8605 2.827,13.56184 -0.1246,23.50652 -0.2493,47.01305 -0.3739,70.51958 -0.031,5.89489 -0.038,11.93552 1.9786,17.47466 2.0171,5.53913 6.5126,10.56332 12.3342,11.49077 5.6792,0.90476 11.1625,-2.13135 16.1135,-5.05712 5.7318,-3.38723 11.4637,-6.77445 17.1955,-10.16168 2.9605,-1.74947 6.308,-4.16667 6.1771,-7.60292 -0.9756,-25.61445 -1.9512,-51.2289 -2.9268,-76.84335 -0.1903,-4.99646 -0.3515,-10.16903 1.5281,-14.80239 1.8795,-4.63335 6.3935,-8.59344 11.3756,-8.16932 8.5578,0.72853 11.1039,11.89373 11.3713,20.47835 1.1826,37.96848 2.3651,75.93697 3.5476,113.90546 0.1693,5.43414 0.2968,11.08978 -1.9466,16.0421 -2.2435,4.95232 -7.6193,8.93994 -12.9202,7.73211 -5.1628,-1.17636 -8.2228,-6.62358 -9.2426,-11.81958 -1.0198,-5.19599 -0.6668,-10.63847 -2.1894,-15.70995 -8.9662,12.10722 -24.8375,18.69966 -39.743,16.50797 -14.9054,-2.19169 -28.2073,-13.07372 -33.3088,-27.24944 -3.3225,-9.23212 -3.3022,-19.28221 -3.2431,-29.09379 0.1346,-22.34876 0.2692,-44.69753 0.4038,-67.04629 0.031,-5.21057 0.233,-10.90094 3.6271,-14.85458 4.3499,-5.06701 13.4843,-4.70112 17.415,0.69757 z"
       id="path36" /><path
       class="selected"
       fill="#000000"
       opacity="1"
       stroke="none"
       d="m 588.99671,609.1232 c 18.88332,0.69167 36.46666,11.94123 47.36526,27.37751 10.8986,15.43629 15.61838,34.61092 16.06951,53.50153 0.5281,22.11328 -4.96119,45.10213 -19.2732,61.96756 -13.59593,16.02161 -34.77617,25.30714 -55.77159,24.45058 -8.39278,-0.34241 -18.80821,-4.712 -18.37537,-13.1006 0.29416,-5.70087 5.91824,-9.80249 11.4977,-11.00919 5.57946,-1.20669 11.3917,-0.40516 17.07146,-0.97677 13.15519,-1.32394 24.81195,-10.1818 31.63005,-21.50987 6.8181,-11.32808 9.24975,-24.85091 9.22515,-38.07253 -0.0235,-12.61098 -2.2778,-25.49162 -8.63457,-36.3833 -6.35677,-10.89169 -17.23589,-19.56159 -29.73548,-21.2342 -7.45224,-0.99721 -16.79465,-0.4298 -20.42604,-7.01336 -2.59475,-4.70417 -0.27666,-10.98656 4.01538,-14.21771 4.29204,-3.23115 9.97301,-3.9763 15.34174,-3.77965 z"
       id="path38" /><path
       class="selected"
       fill="#000000"
       opacity="1"
       stroke="none"
       d="m 1306.7675,813.73514 c 6.536,3.13731 13.1917,7.33801 15.9418,14.04609 2.7501,6.70809 -0.6545,16.18301 -7.8457,17.10419 -9.2318,1.18258 -15.3284,-11.20594 -24.6242,-11.66716 -9.0117,-0.44713 -14.1973,10.01162 -16.1985,18.80973 -4.3302,19.03635 -5.0701,38.7237 -4.4564,58.23668 0.1886,5.996 0.5338,12.12913 2.8456,17.66471 2.3119,5.53558 6.9812,10.44367 12.897,11.43907 8.3149,1.39908 15.6682,-4.87164 22.7984,-9.37226 7.1301,-4.50061 18.1159,-6.71486 22.7552,0.32583 4.8711,7.39236 -2.354,16.87089 -9.7821,21.68728 -11.0605,7.17164 -24.2541,11.60447 -37.3876,10.4732 -13.1334,-1.13127 -26.0367,-8.38919 -32.1782,-20.05316 -3.7804,-7.17965 -4.853,-15.44821 -5.4861,-23.53759 -1.543,-19.71672 -0.8398,-39.60837 2.0917,-59.16691 1.7615,-11.75228 4.4442,-23.67874 10.9157,-33.64566 6.4714,-9.96692 17.4106,-17.71836 29.2931,-17.55525 6.4321,0.0883 12.6211,2.42753 18.4203,5.21121 z"
       id="path40" /></g></svg>
